<svg width="58" height="66" viewBox="0 0 58 66" fill="none" xmlns="http://www.w3.org/2000/svg">
<path d="M13.446 1.54579C17.5619 1.21998 21.4966 4.1087 24.597 7.76267C26.8239 10.3872 25.2858 14.2251 21.7671 14.6678C18.6935 15.0545 16.0938 15.0292 14.173 14.8466C12.6435 14.7013 11.3682 13.6893 10.9168 12.2498C9.78033 8.62538 10.2558 5.47671 11.0183 3.41661C11.4082 2.36306 12.356 1.63207 13.446 1.54579Z" fill="white" stroke="#E6E7E8" stroke-width="2"/>
<path d="M45.3729 1.02528C41.2569 0.699471 37.3223 3.5882 34.2219 7.24217C31.9949 9.86672 33.533 13.7046 37.0518 14.1473C40.1254 14.5339 42.7251 14.5087 44.6459 14.3261C46.1753 14.1808 47.4507 13.1688 47.9021 11.7293C49.0385 8.10487 48.563 4.9562 47.8006 2.8961C47.4106 1.84255 46.4629 1.11157 45.3729 1.02528Z" fill="white" stroke="#E6E7E8" stroke-width="2"/>
<path d="M25.4553 11.1596C25.4553 9.38844 26.8911 7.95264 28.6623 7.95264H29.6095C31.3806 7.95264 32.8165 9.38844 32.8165 11.1596C32.8165 12.9308 31.3806 14.3666 29.6095 14.3666H28.6623C26.8911 14.3666 25.4553 12.9308 25.4553 11.1596Z" fill="white" stroke="#E6E7E8" stroke-width="2"/>
<path d="M1.64355 27.4004H56.3058V57.3918C56.3058 60.7055 53.6195 63.3918 50.3058 63.3918H7.64355C4.32985 63.3918 1.64355 60.7055 1.64355 57.3918V27.4004Z" fill="#E6E7E8" stroke="#E6E7E8" stroke-width="2"/>
<path d="M0.999878 24.7563H56.9499V20.5218C56.9499 17.2081 54.2636 14.5218 50.9499 14.5218H6.99988C3.68617 14.5218 0.999878 17.2081 0.999878 20.5218V24.7563Z" fill="#E6E7E8" stroke="#E6E7E8" stroke-width="2"/>
<path d="M22.8921 15.2344C22.8921 14.1298 23.7875 13.2344 24.8921 13.2344H33.0576C34.1622 13.2344 35.0576 14.1298 35.0576 15.2344V62.6799C35.0576 63.7844 34.1622 64.6799 33.0576 64.6799H24.8921C23.7875 64.6799 22.8921 63.7844 22.8921 62.6799V15.2344Z" fill="white" stroke="#E6E7E8" stroke-width="2"/>
</svg>
