<svg width="58" height="66" viewBox="0 0 58 66" fill="none" xmlns="http://www.w3.org/2000/svg">
<path d="M0.643799 26.3989H57.3048V57.3875C57.3048 61.2535 54.1708 64.3875 50.3048 64.3875H7.64379C3.7778 64.3875 0.643799 61.2535 0.643799 57.3875V26.3989Z" fill="url(#paint0_linear_147_6788)"/>
<path d="M13.3667 0.548907C17.9924 0.182774 22.2154 3.41084 25.3584 7.11463C28.1331 10.3845 26.1458 15.1237 21.8909 15.6589C18.7446 16.0547 16.0716 16.0305 14.078 15.841C12.162 15.6589 10.5382 14.3845 9.96229 12.548C8.75036 8.68293 9.25244 5.30579 10.0802 3.06943C10.6001 1.66464 11.8735 0.667102 13.3667 0.548907Z" fill="url(#paint1_linear_147_6788)"/>
<path d="M20.4418 7.08442C21.3992 7.06192 22.3221 7.2408 23.1888 7.55081C26.5397 8.74924 25.1234 12.9533 21.5657 12.8706C21.3493 12.8656 21.1427 12.8579 20.9466 12.848C19.7025 12.7856 18.4924 12.1142 18.1701 10.9109C17.9188 9.97279 18.0313 9.13672 18.2781 8.47885C18.6068 7.60269 19.5063 7.10641 20.4418 7.08442Z" fill="url(#paint2_linear_147_6788)"/>
<path d="M45.4508 0.0283992C40.8251 -0.337733 36.6021 2.89033 33.4591 6.59413C30.6844 9.86396 32.6717 14.6032 36.9266 15.1384C40.0729 15.5342 42.7459 15.51 44.7395 15.3205C46.6555 15.1384 48.2794 13.864 48.8552 12.0274C50.0671 8.16242 49.5651 4.78528 48.7374 2.54892C48.2174 1.14413 46.944 0.146594 45.4508 0.0283992Z" fill="url(#paint3_linear_147_6788)"/>
<path d="M-0.00012207 25.7549H57.9486V20.5213C57.9486 16.6553 54.8146 13.5213 50.9486 13.5213H6.99988C3.13388 13.5213 -0.00012207 16.6553 -0.00012207 20.5213V25.7549Z" fill="url(#paint4_linear_147_6788)"/>
<path d="M37.5068 7.08442C36.5494 7.06192 35.6265 7.2408 34.7598 7.55081C31.409 8.74924 32.8252 12.9533 36.3829 12.8706C36.5994 12.8656 36.8059 12.8579 37.002 12.848C38.2461 12.7856 39.4562 12.1142 39.7785 10.9109C40.0298 9.97279 39.9173 9.13672 39.6705 8.47885C39.3418 7.60269 38.4423 7.10641 37.5068 7.08442Z" fill="url(#paint5_linear_147_6788)"/>
<path d="M24.4546 11.1588C24.4546 8.83554 26.338 6.95215 28.6612 6.95215H29.6089C31.9321 6.95215 33.8155 8.83554 33.8155 11.1588V11.1588C33.8155 13.4821 31.9321 15.3655 29.6089 15.3655H28.6612C26.338 15.3655 24.4546 13.4821 24.4546 11.1588V11.1588V11.1588Z" fill="url(#paint6_linear_147_6788)"/>
<path d="M21.8916 15.2339C21.8916 13.577 23.2347 12.2339 24.8916 12.2339H33.0568C34.7137 12.2339 36.0568 13.577 36.0568 15.2339V62.6755C36.0568 64.3323 34.7137 65.6755 33.0568 65.6755H24.8916C23.2347 65.6755 21.8916 64.3323 21.8916 62.6755V15.2339Z" fill="url(#paint7_linear_147_6788)"/>
<defs>
<linearGradient id="paint0_linear_147_6788" x1="28.9743" y1="26.3989" x2="28.9743" y2="64.3875" gradientUnits="userSpaceOnUse">
<stop stop-color="#10347E"/>
<stop offset="1" stop-color="#385FAE"/>
</linearGradient>
<linearGradient id="paint1_linear_147_6788" x1="19.5413" y1="0.520508" x2="19.5413" y2="15.9735" gradientUnits="userSpaceOnUse">
<stop stop-color="#FEE600"/>
<stop offset="1" stop-color="#FEB700"/>
</linearGradient>
<linearGradient id="paint2_linear_147_6788" x1="23.5014" y1="7.08252" x2="23.5014" y2="12.8774" gradientUnits="userSpaceOnUse">
<stop stop-color="#FEB700"/>
<stop offset="0.596875" stop-color="#FEC700"/>
<stop offset="1" stop-color="#FED500"/>
</linearGradient>
<linearGradient id="paint3_linear_147_6788" x1="39.2763" y1="0" x2="39.2763" y2="15.453" gradientUnits="userSpaceOnUse">
<stop stop-color="#FEE600"/>
<stop offset="1" stop-color="#FEB700"/>
</linearGradient>
<linearGradient id="paint4_linear_147_6788" x1="28.9742" y1="25.7549" x2="28.9742" y2="13.5213" gradientUnits="userSpaceOnUse">
<stop stop-color="#10347E"/>
<stop offset="1" stop-color="#385FAE"/>
</linearGradient>
<linearGradient id="paint5_linear_147_6788" x1="34.4472" y1="7.08252" x2="34.4472" y2="12.8774" gradientUnits="userSpaceOnUse">
<stop stop-color="#FEB700"/>
<stop offset="0.596875" stop-color="#FEC700"/>
<stop offset="1" stop-color="#FED500"/>
</linearGradient>
<linearGradient id="paint6_linear_147_6788" x1="29.1351" y1="6.95215" x2="29.1351" y2="15.3655" gradientUnits="userSpaceOnUse">
<stop stop-color="#FEE600"/>
<stop offset="1" stop-color="#FEB700"/>
</linearGradient>
<linearGradient id="paint7_linear_147_6788" x1="28.9742" y1="12.2339" x2="28.9742" y2="65.6755" gradientUnits="userSpaceOnUse">
<stop stop-color="#FEE600"/>
<stop offset="1" stop-color="#FEB700"/>
</linearGradient>
</defs>
</svg>
